<svg xmlns="http://www.w3.org/2000/svg" xmlns:xlink="http://www.w3.org/1999/xlink" version="1.1" x="0px" y="0px" viewBox="0 0 66 82.5" enable-background="new 0 0 66 66" xml:space="preserve"><g><path d="M10.2,23.8C5.1,23.8,1,27.9,1,33s4.1,9.2,9.2,9.2s9.2-4.1,9.2-9.2S15.3,23.8,10.2,23.8z M10.2,40.2   C6.2,40.2,3,37,3,33s3.2-7.2,7.2-7.2s7.2,3.2,7.2,7.2S14.2,40.2,10.2,40.2z"/><path d="M10.2,1C5.1,1,1,5.1,1,10.2s4.1,9.2,9.2,9.2s9.2-4.1,9.2-9.2S15.3,1,10.2,1z M10.2,17.5   c-4,0-7.2-3.2-7.2-7.2S6.2,3,10.2,3s7.2,3.2,7.2,7.2S14.2,17.5,10.2,17.5z"/><path d="M10.2,46.5c-5.1,0-9.2,4.1-9.2,9.2S5.1,65,10.2,65s9.2-4.1,9.2-9.2S15.3,46.5,10.2,46.5z M10.2,63   c-4,0-7.2-3.2-7.2-7.2s3.2-7.2,7.2-7.2s7.2,3.2,7.2,7.2S14.2,63,10.2,63z"/><path d="M33,46.5c-5.1,0-9.2,4.1-9.2,9.2S27.9,65,33,65s9.2-4.1,9.2-9.2S38.1,46.5,33,46.5z M33,63   c-4,0-7.2-3.2-7.2-7.2s3.2-7.2,7.2-7.2s7.2,3.2,7.2,7.2S37,63,33,63z"/><path d="M55.8,46.5c-5.1,0-9.2,4.1-9.2,9.2s4.1,9.2,9.2,9.2s9.2-4.1,9.2-9.2S60.9,46.5,55.8,46.5z M55.8,63   c-4,0-7.2-3.2-7.2-7.2s3.2-7.2,7.2-7.2s7.2,3.2,7.2,7.2S59.8,63,55.8,63z"/><path d="M33,23.8c-5.1,0-9.2,4.1-9.2,9.2s4.1,9.2,9.2,9.2s9.2-4.1,9.2-9.2S38.1,23.8,33,23.8z M33,40.2   c-4,0-7.2-3.2-7.2-7.2s3.2-7.2,7.2-7.2s7.2,3.2,7.2,7.2S37,40.2,33,40.2z"/><path d="M33,1c-5.1,0-9.2,4.1-9.2,9.2s4.1,9.2,9.2,9.2s9.2-4.1,9.2-9.2S38.1,1,33,1z M33,17.5   c-4,0-7.2-3.2-7.2-7.2S29,3,33,3s7.2,3.2,7.2,7.2S37,17.5,33,17.5z"/><path d="M55.8,19.5c5.1,0,9.2-4.1,9.2-9.2S60.9,1,55.8,1s-9.2,4.1-9.2,9.2S50.7,19.5,55.8,19.5z M55.8,3   c4,0,7.2,3.2,7.2,7.2s-3.2,7.2-7.2,7.2s-7.2-3.2-7.2-7.2S51.8,3,55.8,3z"/><path d="M55.8,23.8c-5.1,0-9.2,4.1-9.2,9.2s4.1,9.2,9.2,9.2S65,38.1,65,33S60.9,23.8,55.8,23.8z M55.8,40.2   c-4,0-7.2-3.2-7.2-7.2s3.2-7.2,7.2-7.2S63,29,63,33S59.8,40.2,55.8,40.2z"/></g><text x="0" y="81" fill="#000000" font-size="5px" font-weight="bold" font-family="'Helvetica Neue', Helvetica, Arial-Unicode, Arial, Sans-serif">Created by ProSymbols</text><text x="0" y="86" fill="#000000" font-size="5px" font-weight="bold" font-family="'Helvetica Neue', Helvetica, Arial-Unicode, Arial, Sans-serif">from the Noun Project</text></svg>